<svg width="100%" height="100%" id="svg" viewBox="0 0 1440 700" xmlns="http://www.w3.org/2000/svg" class="transition duration-300 ease-in-out delay-150"><path d="M 0,700 C 0,700 0,233 0,233 C 94.61244019138758,196.23444976076556 189.22488038277515,159.4688995215311 282,153 C 374.77511961722485,146.5311004784689 465.7129186602871,170.35885167464113 553,209 C 640.2870813397129,247.64114832535887 723.9234449760764,301.0956937799043 836,303 C 948.0765550239236,304.9043062200957 1088.5933014354068,255.25837320574163 1194,235 C 1299.4066985645932,214.74162679425837 1369.7033492822966,223.87081339712918 1440,233 C 1440,233 1440,700 1440,700 Z" stroke="none" stroke-width="0" fill="#6389ff" fill-opacity="0.53" class="transition-all duration-300 ease-in-out delay-150 path-0"></path><path d="M 0,700 C 0,700 0,466 0,466 C 126.43062200956936,498.07655502392345 252.86124401913872,530.1531100478469 335,529 C 417.1387559808613,527.8468899521531 454.9856459330143,493.4641148325359 531,467 C 607.0143540669857,440.5358851674641 721.1961722488038,421.9904306220095 835,407 C 948.8038277511962,392.0095693779905 1062.2296650717703,380.57416267942585 1163,391 C 1263.7703349282297,401.42583732057415 1351.8851674641148,433.7129186602871 1440,466 C 1440,466 1440,700 1440,700 Z" stroke="none" stroke-width="0" fill="#6389ff" fill-opacity="1" class="transition-all duration-300 ease-in-out delay-150 path-1"></path></svg>